<svg width="65" height="65" viewBox="0 0 65 65" fill="none" xmlns="http://www.w3.org/2000/svg">
<path d="M33.6617 65C38.6322 64.2924 42.9896 59.0942 45.7315 51.4173C41.7678 50.5278 37.723 50.0504 33.6617 49.9936V65Z" fill="#DC3535"/>
<path d="M41.6027 63.7792C41.8966 63.6939 42.1893 63.6081 42.4797 63.5137C42.7247 63.4347 42.9663 63.3495 43.208 63.2648C43.4939 63.1659 43.7786 63.0642 44.0622 62.9562C44.3038 62.8641 44.5432 62.7663 44.7831 62.6686C45.06 62.5521 45.3362 62.4361 45.6096 62.3196C45.8484 62.2145 46.0855 62.1042 46.3226 61.9934C46.5909 61.8666 46.858 61.7376 47.1229 61.6035C47.3555 61.4847 47.5875 61.3636 47.82 61.2392C48.0804 61.0993 48.339 60.9567 48.596 60.81C48.8286 60.6782 49.0526 60.5458 49.2789 60.4094C49.5308 60.2542 49.7815 60.099 50.0305 59.9439C50.2534 59.8018 50.4758 59.6574 50.6953 59.5085C50.9403 59.3431 51.182 59.1709 51.4225 58.9987C51.6386 58.8435 51.8535 58.6889 52.0646 58.5332C52.2971 58.3536 52.5353 58.1677 52.7685 57.9813C52.9755 57.8159 53.182 57.6517 53.3856 57.4817C53.6176 57.2885 53.8399 57.0884 54.0651 56.8884C54.2625 56.7127 54.4611 56.5388 54.6539 56.3586C54.8757 56.1512 55.0918 55.9364 55.3079 55.7232C55.4951 55.5379 55.6845 55.3555 55.8678 55.1657C55.9018 55.1304 55.9341 55.0923 55.9693 55.056C53.4355 53.7448 50.7668 52.7155 48.0095 51.9868C46.5756 56.5689 44.0236 60.7214 40.5852 64.0668C40.6793 64.0423 40.7735 64.0224 40.8676 63.998C41.1161 63.9281 41.36 63.8513 41.6027 63.7792Z" fill="#DC3535"/>
<path d="M65 33.664H51.0714C51.0186 39.1134 50.2296 44.5305 48.7259 49.7679C51.7923 50.5887 54.7515 51.7686 57.5422 53.2832C62.1242 47.7497 64.747 40.8504 65 33.664Z" fill="#DC3535"/>
<path d="M33.6617 31.336H48.748C48.689 26.0792 47.9193 20.8549 46.461 15.805C42.2602 16.7649 37.9697 17.2776 33.6617 17.3344V31.336Z" fill="#DC3535"/>
<path d="M33.6617 0V15.0064C37.723 14.949 41.7678 14.4722 45.7315 13.5827C42.9896 5.90584 38.6322 0.707609 33.6617 0Z" fill="#DC3535"/>
<path d="M33.6617 47.6656C37.9697 47.723 42.2602 48.2356 46.461 49.1956C47.9193 44.1457 48.689 38.9208 48.748 33.664H33.6617V47.6656Z" fill="#DC3535"/>
<path d="M57.5422 11.7168C54.7515 13.2314 51.7923 14.4114 48.7259 15.2321C50.2296 20.4695 51.0186 25.8866 51.0714 31.336H65C64.7465 24.1502 62.1236 17.2509 57.5422 11.7168Z" fill="#DC3535"/>
<path d="M55.9727 9.95086C55.9387 9.91619 55.9063 9.87868 55.8729 9.84287C55.6891 9.65304 55.4985 9.47003 55.3113 9.28531C55.0958 9.07217 54.8808 8.85676 54.6584 8.64988C54.4662 8.47028 54.2671 8.30034 54.0697 8.12131C53.8445 7.92124 53.6193 7.71948 53.3879 7.52623C53.1871 7.35629 52.9812 7.19374 52.777 7.03062C52.5444 6.84193 52.3062 6.65437 52.0668 6.4742C51.8569 6.31562 51.6442 6.16217 51.4304 6.00871C51.1876 5.83365 50.9437 5.65917 50.6964 5.49264C50.4792 5.346 50.2585 5.20277 50.0379 5.06239C49.7866 4.90041 49.5359 4.74183 49.2801 4.58838C49.056 4.45367 48.8297 4.32068 48.6028 4.19166C48.343 4.04275 48.0827 3.89839 47.82 3.75743C47.5875 3.64092 47.3555 3.51417 47.1229 3.39766C46.8558 3.26239 46.5863 3.13224 46.3101 3.00435C46.0775 2.89352 45.8416 2.78554 45.6022 2.68039C45.3271 2.55819 45.0492 2.44793 44.7718 2.33142C44.5324 2.23366 44.2942 2.13704 44.0526 2.04496C43.7707 1.93697 43.4848 1.83581 43.1989 1.73691C42.9573 1.65166 42.7156 1.56697 42.4706 1.4874C42.1802 1.39305 41.8898 1.30723 41.5914 1.22084C41.3498 1.14979 41.107 1.07761 40.8625 1.01282C40.7689 0.987243 40.6736 0.96735 40.5795 0.94291C44.018 4.28828 46.5693 8.44016 48.0038 13.0228C50.7639 12.2942 53.4367 11.2643 55.9727 9.95086Z" fill="#DC3535"/>
<path d="M0 31.336H13.9287C13.9814 25.8866 14.7704 20.4695 16.2735 15.2321C13.2077 14.4119 10.2485 13.232 7.45781 11.7168C2.8758 17.2503 0.25298 24.1502 0 31.336Z" fill="#DC3535"/>
<path d="M31.3383 65V49.9936C27.277 50.051 23.2322 50.5278 19.2685 51.4173C22.0098 59.0942 26.3678 64.2924 31.3383 65Z" fill="#DC3535"/>
<path d="M31.3383 33.664H16.252C16.311 38.9208 17.0801 44.1457 18.539 49.1956C22.7398 48.2351 27.0297 47.7224 31.3383 47.6656V33.664Z" fill="#DC3535"/>
<path d="M31.3383 0C26.3678 0.707609 22.0098 5.90584 19.2685 13.5827C23.2322 14.4727 27.277 14.9496 31.3383 15.0064V0Z" fill="#DC3535"/>
<path d="M31.3383 17.3344C27.0303 17.2776 22.7398 16.7649 18.539 15.805C17.0801 20.8549 16.311 26.0792 16.252 31.336H31.3383V17.3344Z" fill="#DC3535"/>
<path d="M24.4114 0.941774C24.3173 0.966213 24.2231 0.986106 24.129 1.01055C23.8828 1.07648 23.64 1.14979 23.395 1.22084C23.1034 1.30609 22.8142 1.39192 22.5215 1.48513C22.2747 1.56527 22.032 1.65052 21.7892 1.73521C21.505 1.83581 21.2203 1.93584 20.9389 2.04269C20.6962 2.1359 20.4568 2.23252 20.2163 2.33142C19.94 2.44793 19.6632 2.56444 19.3904 2.68039C19.151 2.78554 18.9145 2.8958 18.6774 3.00663C18.4091 3.13337 18.142 3.26239 17.8771 3.39652C17.6445 3.51531 17.412 3.63694 17.18 3.76084C16.9196 3.90066 16.6615 4.04389 16.4051 4.19052C16.1726 4.32068 15.944 4.45424 15.7199 4.59065C15.4675 4.74297 15.2179 4.90041 14.9695 5.05614C14.746 5.19936 14.5242 5.34373 14.3047 5.49264C14.0597 5.65803 13.818 5.83024 13.5775 6.00246C13.3614 6.15762 13.1465 6.31221 12.9349 6.46851C12.6972 6.64755 12.4703 6.83397 12.231 7.01982C12.0245 7.18522 11.8163 7.34947 11.6144 7.52055C11.3818 7.71265 11.1612 7.91158 10.9371 8.11051C10.7386 8.28784 10.5384 8.46005 10.3444 8.64363C10.1237 8.84994 9.90877 9.06422 9.69322 9.27678C9.50604 9.46207 9.31545 9.64508 9.13167 9.83548C9.09821 9.87072 9.06588 9.90937 9.03071 9.94518C11.5639 11.257 14.2332 12.2863 16.9905 13.0149C18.4244 8.43504 20.9747 4.28544 24.4114 0.941774Z" fill="#DC3535"/>
<path d="M9.68812 55.7147C9.90423 55.9278 10.1192 56.1432 10.341 56.3507C10.5338 56.5297 10.7324 56.6997 10.9303 56.8787C11.1555 57.0793 11.3807 57.2805 11.6121 57.4738C11.8129 57.6426 12.0177 57.8057 12.223 57.9694C12.4556 58.1581 12.6876 58.3456 12.9337 58.5269C13.1431 58.6844 13.3558 58.8367 13.5685 58.993C13.8112 59.1675 14.0563 59.342 14.3036 59.5096C14.5208 59.6563 14.7415 59.7995 14.9621 59.9405C15.2134 60.1019 15.4641 60.2604 15.7199 60.4139C15.944 60.5492 16.1703 60.6816 16.3972 60.8112C16.657 60.9601 16.9173 61.1045 17.18 61.2448C17.412 61.3614 17.6445 61.4881 17.8771 61.6046C18.1442 61.7399 18.4137 61.87 18.6899 61.9985C18.9225 62.1082 19.1584 62.2162 19.3978 62.3219C19.6729 62.4441 19.9503 62.5543 20.2282 62.6709C20.4676 62.7686 20.7058 62.8652 20.9474 62.9573C21.2293 63.0659 21.5152 63.167 21.8011 63.2659C22.0427 63.3506 22.2844 63.4359 22.5294 63.5149C22.8198 63.6092 23.1102 63.6956 23.4086 63.7814C23.6502 63.8525 23.893 63.9247 24.1369 63.99C24.2311 64.0156 24.3264 64.0355 24.4205 64.0599C20.982 60.714 18.4307 56.5621 16.9962 51.9794C14.2389 52.7086 11.5696 53.7379 9.03638 55.0503C9.07041 55.085 9.10275 55.1225 9.13678 55.1583C9.31092 55.347 9.49866 55.53 9.68812 55.7147Z" fill="#DC3535"/>
<path d="M7.45781 53.2832C10.2485 51.7686 13.2077 50.5887 16.2735 49.7679C14.7704 44.5305 13.9814 39.1134 13.9287 33.664H0C0.253547 40.8498 2.8758 47.7491 7.45781 53.2832Z" fill="#DC3535"/>
</svg>
